<?xml version="1.0" encoding="utf-8"?>
<!-- Generator: Adobe Illustrator 27.0.0, SVG Export Plug-In . SVG Version: 6.00 Build 0)  -->
<svg version="1.1" id="レイヤー_1" xmlns="http://www.w3.org/2000/svg" xmlns:xlink="http://www.w3.org/1999/xlink" x="0px"
	 y="0px" viewBox="0 0 400 400" style="enable-background:new 0 0 400 400;" xml:space="preserve">
<style type="text/css">
	.st0{fill:#040000;}
</style>
<path class="st0" d="M59.4,306.7c-2-2.8-4.9-4.9-8.8-6.4L39.5,296c-2.1-0.8-3.5-1.8-4.5-2.8c-0.9-1.1-1.4-2.4-1.4-3.9
	c0-2,0.8-3.6,2.3-4.8c1.5-1.1,3.6-1.7,6.2-1.7c6,0,13.1,2.9,17.6,7.2v-11.8c-5-3.9-10.9-5.8-18-5.8c-5.9,0-11.2,1.8-15,5
	c-3.9,3.3-5.9,7.8-5.9,13c0,3.6,1,6.8,2.9,9.4c1.9,2.7,4.9,4.9,8.8,6.5l10.7,4.5c2.2,0.9,3.7,1.9,4.8,3c1.1,1.2,1.6,2.6,1.6,4.3
	c0,2.2-0.9,4.1-2.6,5.4c-1.7,1.3-4.1,2-7,2c-7.5,0-14.7-3.3-20.3-9.3v12.2c4.8,5.1,11.5,7.9,19.5,7.9c6.9,0,12.7-1.8,16.8-5.2
	c4.1-3.4,6.2-8.3,6.2-14.1C62.4,312.9,61.4,309.5,59.4,306.7L59.4,306.7z"/>
<rect x="90.5" y="270.9" class="st0" width="11.3" height="63.9"/>
<path class="st0" d="M140.5,292c-1,2.8-1.9,5.6-2.9,8.3l-7.7,21.7l-10.7-30h-12.3l3.6,8.9l13.3,33.8h12.1l13.2-33.5l3.6-9.3h-12.2
	V292z"/>
<path class="st0" d="M184,308h-19.2v-0.6c0.2-2.9,1.2-5.3,2.8-7c1.7-1.8,4.1-2.7,6.9-2.7c3,0,5.5,1,7.1,2.8c1.5,1.7,2.4,4.1,2.4,6.9
	V308L184,308z M174.6,290.7c-6.4,0-11.9,2.2-15.7,6.4c-3.8,4.1-5.7,9.9-5.7,16.7c0,6.8,2.2,12.4,6.2,16.4c4,3.9,9.9,6,16.8,6
	c5.9,0,10.8-1.5,14-4.3c2.9-2.5,4.5-5.9,4.8-10.2c-1.2,1.1-2.9,2-4.9,2.6c-2.5,0.8-5.5,1.3-8.7,1.3c-4.4,0-8.2-0.9-11.1-2.5
	c-3.1-1.8-4.9-4.4-5.3-7.6l-0.1-0.6h31c0-7.7-1.7-13.6-5.2-17.7C187.2,292.8,181.7,290.7,174.6,290.7"/>
<path class="st0" d="M226.6,291.1c-2.7,0-4.9,0.7-6.7,2c-1.8,1.4-3.9,3.4-4.7,6l-0.1,0.2h-0.2V292h-10.2v42.8H216v-25.6
	c0.6-2.5,1.9-4.4,3.8-5.7c1.7-1.1,3.8-1.7,6.1-1.7c1.4,0,2.7,0.1,3.9,0.4v-10.6c-0.3-0.1-0.7-0.2-1.2-0.3
	C228.2,291.2,227.5,291.1,226.6,291.1L226.6,291.1z"/>
<path class="st0" d="M338,291.1c-2.7,0-4.9,0.7-6.7,2c-1.8,1.4-3.9,3.4-4.7,6l-0.1,0.2h-0.2V292h-10.2v42.8h11.3v-25.6
	c0.6-2.5,1.9-4.4,3.8-5.7c1.7-1.1,3.8-1.7,6.1-1.7c1.4,0,2.7,0.1,3.9,0.4v-10.6c-0.3-0.1-0.7-0.2-1.1-0.3
	C339.5,291.2,338.8,291.1,338,291.1L338,291.1z"/>
<path class="st0" d="M236.5,287.3v47.4h11.2v-33.1h11.6V292h-11.6v-4.4c0-2.4,0.6-4.3,1.7-5.7c1.3-1.6,3.3-2.4,5.9-2.4
	c2.3,0,4.5,0.6,6.2,1.7V272c-2.8-1.6-6.6-1.9-8.7-1.9c-5.2,0-9.2,1.5-12.1,4.5C237.9,277.4,236.5,281.8,236.5,287.3"/>
<path class="st0" d="M294.3,322.2c-2.1,2.3-4.9,3.5-8.3,3.5c-3.3,0-6.2-1.3-8.3-3.6c-2-2.2-3.2-5.4-3.2-9c0-3.5,1.1-6.6,3.2-8.8
	c2.1-2.2,5-3.4,8.3-3.4c3.4,0,6.2,1.2,8.3,3.4c2.1,2.2,3.2,5.3,3.2,8.9C297.5,316.8,296.4,320,294.3,322.2 M302.5,296.6
	c-4.2-3.9-10-6-16.5-6c-6.4,0-12.2,2.1-16.5,6c-4.5,4.1-6.8,9.8-6.8,16.6c0,6.8,2.4,12.6,6.8,16.7c4.2,3.9,10.1,6.1,16.5,6.1
	s12.2-2.2,16.5-6.1c4.5-4.2,6.9-10,6.9-16.7C309.3,306.5,306.9,300.7,302.5,296.6"/>
<path class="st0" d="M365.6,323.3c-1.5-1.5-2.3-3.8-2.3-6.6v-15h17.2V292h-17.2v-11.7L344,301.7h8.1v19.8c0,4.6,1.2,8.2,3.6,10.7
	c2.5,2.5,6,3.8,10.7,3.8c4.6,0,8.4-1.3,10.9-3.9c2.3-2.3,3.5-5.6,3.8-9.8c-2.2,2.1-5.3,3.3-9,3.3
	C369.3,325.7,367.1,324.9,365.6,323.3L365.6,323.3z"/>
<rect x="69.4" y="292" class="st0" width="11.3" height="42.8"/>
<rect x="69.4" y="292" class="st0" width="11.3" height="42.8"/>
<polygon class="st0" points="69.4,285.7 80.7,277.3 80.7,270.9 69.4,270.9 "/>
<polygon class="st0" points="200.4,98.8 125.3,64.7 125.3,148.7 200.4,182.8 275.5,148.7 275.5,64.7 "/>
<polygon class="st0" points="200.4,198.2 171.7,185.2 125.3,206.2 200.4,240.3 275.5,206.2 229.2,185.2 "/>
</svg>
