<svg xmlns="http://www.w3.org/2000/svg" id="Layer_1" viewBox="0 0 363.03915 140.59264"><defs><style>      .st0 {        fill: #fff;      }    </style></defs><g><polygon class="st0" points="65.60599 50.20656 37.51957 37.47497 37.51957 68.88763 65.60599 81.61925 93.69239 68.88763 93.69239 37.47497 65.60599 50.20656"></polygon><polygon class="st0" points="65.60599 87.40409 54.85193 82.52926 37.51957 90.38605 65.60599 103.11766 93.69239 90.38605 76.36004 82.52929 65.60599 87.40409"></polygon></g><g><path class="st0" d="M234.89503,57.91848c-1.55589,0-2.90441.39748-3.94729,1.18218-1.05986.79489-2.31334,1.98724-2.75834,3.54305l-.04076.14268-.13249-.01362v-4.32772h-5.96509v25.11397h6.64449v-15.04862c.37368-1.48801,1.1278-2.60902,2.24882-3.35975.97493-.65222,2.21482-.99871,3.58381-.99871.82546,0,1.5728.08492,2.27598.25817v-6.24362c-.17325-.06794-.39406-.12233-.65901-.16309-.3533-.05435-.79643-.08492-1.25011-.08492Z"></path><path class="st0" d="M300.24946,57.91848c-1.55589,0-2.90441.39748-3.94729,1.18218-1.05986.79489-2.31334,1.98724-2.75834,3.54305l-.04076.14268-.13249-.01362v-4.32772h-5.96509v25.11397h6.64449v-15.04862c.37368-1.48801,1.1278-2.60902,2.24882-3.35975.97493-.65222,2.21482-.99871,3.58381-.99871.82546,0,1.5728.08492,2.27598.25817v-6.24362c-.17325-.06794-.39406-.12233-.65901-.16309-.3533-.05435-.79643-.08492-1.25011-.08492Z"></path><path class="st0" d="M137.84599,67.09732c-1.18228-1.64357-2.89762-2.89762-5.1668-3.75706l-6.54258-2.56472c-1.22291-.48917-2.08574-1.03608-2.63606-1.67131-.5537-.63863-.82206-1.39276-.82206-2.30655,0-1.17196.47557-2.1401,1.37238-2.80591.87302-.64543,2.14349-.98852,3.67552-.98852,3.51927,0,7.70435,1.71887,10.33361,4.21565v-6.95701c-2.93499-2.30995-6.38631-3.43435-10.54422-3.43435-3.46491,0-6.59353,1.03948-8.81176,2.9282-2.26239,1.92609-3.45812,4.55875-3.45812,7.61603,0,2.12311.5639,3.98126,1.68151,5.52009,1.13459,1.56601,2.87384,2.86026,5.17699,3.84538l6.27422,2.66656c1.27387.52653,2.19105,1.11081,2.79911,1.78002.64882.71337.96474,1.53543.96474,2.51037,0,1.30104-.53332,2.39487-1.54222,3.16259-.99192.75413-2.40507,1.15497-4.08317,1.15497-4.42286,0-8.63511-1.93628-11.903-5.45894v7.17782c2.81609,3.01991,6.77017,4.61649,11.44102,4.61649,4.05259,0,7.45976-1.05307,9.85123-3.04709,2.40167-2.00082,3.67213-4.86447,3.67213-8.28184,0-2.30655-.5921-4.33557-1.73246-5.92087Z"></path><path class="st0" d="M162.74888,46.04267h-6.64449v37.51295h6.64449v-37.51295Z"></path><path class="st0" d="M185.46075,58.44164l-6.20629,17.62364-6.31156-17.62364h-7.21182l9.9294,25.114h7.12347l9.88516-25.114h-7.20835Z"></path><path class="st0" d="M205.49271,57.65708c-3.78764,0-6.97399,1.29425-9.2126,3.74347-2.20463,2.41186-3.36981,5.79525-3.36981,9.78327,0,3.97786,1.26368,7.3069,3.65175,9.62364,2.38128,2.31334,5.79525,3.53286,9.87163,3.53286,3.4785,0,6.32517-.87302,8.22747-2.52735,1.69171-1.47089,2.63606-3.49209,2.80931-6.01265-.73376.62844-1.72907,1.15837-2.90441,1.54902-1.50148.49936-3.26451.76432-5.09547.76432-2.5919,0-4.84409-.50275-6.51202-1.4573-1.81397-1.03608-2.90101-2.5885-3.13879-4.49081l-.04756-.38046h18.201c.02718-4.49417-.98851-7.98626-3.01312-10.37774-2.10953-2.48999-5.2925-3.75027-9.46737-3.75027ZM199.74503,67.85818l.02377-.36008c.11211-1.69845.67941-3.12519,1.64754-4.1239.99871-1.03268,2.39146-1.5796,4.02881-1.5796,1.75625,0,3.20335.57749,4.18168,1.66792.90701,1.0089,1.38937,2.41186,1.38937,4.05936v.33685l-11.27117-.00055Z"></path><path class="st0" d="M240.67667,55.69686v27.85877h6.59014v-19.41044h6.80075v-5.70356h-6.80075v-2.5885c0-1.41654.3295-2.54773.98513-3.35961.76432-.94776,1.93626-1.4267,3.48868-1.4267,1.34181,0,2.64626.35325,3.63817.9783v-5.41815c-1.62036-.96135-3.88274-1.10745-5.10227-1.10745-3.0403,0-5.42156.88322-7.07929,2.62247-1.67471,1.75624-2.52057,4.30058-2.52057,7.55488Z"></path><path class="st0" d="M279.40934,61.17289c-2.46959-2.26579-5.90393-3.51248-9.66438-3.51248s-7.1948,1.24669-9.6644,3.51248c-2.62926,2.41186-4.01863,5.78166-4.01863,9.74936s1.38937,7.37824,4.01863,9.83086c2.48319,2.31674,5.91413,3.5906,9.6644,3.5906s7.18119-1.27387,9.66438-3.5906c2.62928-2.45262,4.01863-5.853,4.01863-9.83086s-1.38935-7.33751-4.01863-9.74936ZM274.61621,76.20116c-1.2229,1.352-2.90781,2.06876-4.87465,2.06876s-3.66535-.74054-4.87467-2.08575c-1.19232-1.32143-1.84796-3.19316-1.84796-5.26532s.63863-3.88618,1.85136-5.19062c1.21952-1.31123,2.90441-2.00422,4.87127-2.00422s3.65855.68619,4.87125,1.98384c1.21272,1.29765,1.85136,3.09808,1.85136,5.211s-.63863,3.94729-1.84796,5.2823Z"></path><path class="st0" d="M315.08747,72.96044v-8.81509h10.09921v-5.70353h-10.09921v-6.88568l-11.34931,12.58921h4.75577v11.64138c0,2.72098.71676,4.84409,2.13331,6.30819,1.43691,1.48788,3.54645,2.2454,6.26403,2.2454s4.90862-.77451,6.39311-2.30315c1.33161-1.37238,2.08233-3.30866,2.2352-5.76467-1.26707,1.25688-3.12182,1.94647-5.2789,1.94647-1.5728,0-2.88205-.47868-3.76556-1.36219-.9116-.9116-1.38765-2.25559-1.38765-3.89634Z"></path><path class="st0" d="M150.34992,58.44165h-6.64449v25.11397h6.64449v-25.11397Z"></path><path class="st0" d="M143.68132,54.7797l6.64449-4.946v-3.79103h-6.64449v8.73703Z"></path></g></svg>